<svg id="visual" viewBox="0 0 900 300" width="900" height="300" xmlns="http://www.w3.org/2000/svg" xmlns:xlink="http://www.w3.org/1999/xlink" version="1.1"><path d="M0 218L15 213.3C30 208.7 60 199.3 90 202.8C120 206.3 150 222.7 180 210.2C210 197.7 240 156.3 270 139.5C300 122.7 330 130.3 360 150.5C390 170.7 420 203.3 450 210.8C480 218.3 510 200.7 540 197.8C570 195 600 207 630 214.3C660 221.7 690 224.3 720 224C750 223.7 780 220.3 810 226.5C840 232.7 870 248.3 885 256.2L900 264L900 301L885 301C870 301 840 301 810 301C780 301 750 301 720 301C690 301 660 301 630 301C600 301 570 301 540 301C510 301 480 301 450 301C420 301 390 301 360 301C330 301 300 301 270 301C240 301 210 301 180 301C150 301 120 301 90 301C60 301 30 301 15 301L0 301Z" fill="#FFFFFF" stroke-linecap="round" stroke-linejoin="miter"></path></svg>